<svg xmlns="http://www.w3.org/2000/svg" width="960" height="540" viewBox="0 0 960 540" role="img" aria-label="Schematic mock: Global Signals future modules overview">
  <rect width="960" height="540" fill="#070c14"/>
  <defs>
    <pattern id="grid3" width="24" height="24" patternUnits="userSpaceOnUse">
      <path d="M24 0H0V24" fill="none" stroke="#152033" stroke-width="1"/>
    </pattern>
  </defs>
  <rect width="960" height="540" fill="url(#grid3)" opacity="0.45"/>
  <text x="40" y="48" fill="#6d7c93" font-family="IBM Plex Mono, monospace" font-size="12" letter-spacing="2">MOCK / SCHEMATIC - MODULES OVERVIEW</text>
  <g font-family="IBM Plex Sans, sans-serif" font-size="13" fill="#e8eef7">
    <rect x="48" y="110" width="250" height="70" rx="10" fill="#0e1626" stroke="#2a3b55"/>
    <text x="173" y="152" text-anchor="middle">Articles</text>
    <rect x="355" y="110" width="250" height="70" rx="10" fill="#0e1626" stroke="#2a3b55"/>
    <text x="480" y="152" text-anchor="middle">Waypoint's Take</text>
    <rect x="662" y="110" width="250" height="70" rx="10" fill="#0e1626" stroke="#2a3b55"/>
    <text x="787" y="152" text-anchor="middle">Relationship Graph</text>
    <rect x="48" y="220" width="250" height="70" rx="10" fill="#0e1626" stroke="#2a3b55"/>
    <text x="173" y="262" text-anchor="middle">Supply Chains</text>
    <rect x="355" y="220" width="250" height="70" rx="10" fill="#0e1626" stroke="#2a3b55"/>
    <text x="480" y="262" text-anchor="middle">Citizen Impact</text>
    <rect x="662" y="220" width="250" height="70" rx="10" fill="#0e1626" stroke="#2a3b55"/>
    <text x="787" y="262" text-anchor="middle">Scenario Explorer</text>
    <rect x="355" y="330" width="250" height="70" rx="10" fill="#0e1626" stroke="#7dd3a7" stroke-width="1.5"/>
    <text x="480" y="372" text-anchor="middle">Global Dashboard</text>
  </g>
  <text x="480" y="450" text-anchor="middle" fill="#9aa8bd" font-family="IBM Plex Mono, monospace" font-size="12">Future modules - routes exist as empty shells</text>
  <text x="40" y="500" fill="#5eead4" font-family="IBM Plex Mono, monospace" font-size="11">Roadmap teaser - not implemented</text>
</svg>
